<svg xmlns="http://www.w3.org/2000/svg" xmlns:xlink="http://www.w3.org/1999/xlink" width="100" zoomAndPan="magnify" viewBox="0 0 375 374.999991" height="85" preserveAspectRatio="xMidYMid meet" version="1.0"><defs><g/><clipPath id="6d8b74b42b"><path d="M 89.960938 74.898438 L 285.238281 74.898438 L 285.238281 300.066406 L 89.960938 300.066406 Z M 89.960938 74.898438 " clip-rule="nonzero"/></clipPath></defs><path fill="#64ffda" d="M 181.320312 210.210938 C 181.320312 218.25 181.320312 230.304688 181.320312 246.382812 C 178.117188 246.382812 173.3125 246.382812 166.910156 246.382812 C 166.910156 239.980469 166.910156 230.339844 166.910156 217.46875 C 163.707031 217.46875 158.871094 217.46875 152.402344 217.46875 C 152.402344 223.875 152.402344 233.507812 152.402344 246.382812 C 149.199219 246.382812 144.394531 246.382812 137.992188 246.382812 C 137.992188 238.347656 137.992188 228.3125 137.992188 216.289062 C 137.992188 204.265625 137.992188 190.214844 137.992188 174.140625 C 141.195312 174.140625 146 174.140625 152.402344 174.140625 C 152.402344 180.542969 152.402344 190.179688 152.402344 203.054688 C 153.117188 203.054688 154.164062 203.054688 155.539062 203.054688 C 158.148438 196.585938 162.066406 186.945312 167.296875 174.140625 C 170.890625 174.140625 176.3125 174.140625 183.570312 174.140625 C 180.566406 180.542969 176.054688 190.179688 170.046875 203.054688 C 170.960938 203.054688 172.332031 203.054688 174.164062 203.054688 C 176.125 203.054688 177.820312 203.742188 179.257812 205.113281 C 180.632812 206.550781 181.320312 208.25 181.320312 210.210938 Z M 181.320312 210.210938 " fill-opacity="1" fill-rule="nonzero"/><path fill="#64ffda" d="M 219.972656 195.800781 C 219.972656 194.171875 219.972656 191.75 219.972656 188.550781 C 216.769531 188.550781 211.929688 188.550781 205.460938 188.550781 C 205.460938 198.222656 205.460938 212.695312 205.460938 231.972656 C 208.730469 231.972656 213.5625 231.972656 219.972656 231.972656 C 219.972656 230.339844 219.972656 227.921875 219.972656 224.71875 C 223.171875 224.71875 227.972656 224.71875 234.378906 224.71875 C 234.378906 227.921875 234.378906 232.726562 234.378906 239.128906 C 234.378906 241.15625 233.691406 242.855469 232.320312 244.226562 C 230.882812 245.664062 229.183594 246.382812 227.222656 246.382812 C 220.753906 246.382812 211.117188 246.382812 198.308594 246.382812 C 196.28125 246.382812 194.585938 245.664062 193.210938 244.226562 C 191.773438 242.855469 191.058594 241.15625 191.058594 239.128906 C 191.058594 234.296875 191.058594 227.039062 191.058594 217.371094 C 191.058594 213.386719 191.058594 208.417969 191.058594 202.46875 C 191.058594 196.390625 191.058594 189.335938 191.058594 181.296875 C 191.058594 179.335938 191.773438 177.640625 193.210938 176.199219 C 194.585938 174.828125 196.28125 174.140625 198.308594 174.140625 C 204.710938 174.140625 214.351562 174.140625 227.222656 174.140625 C 229.183594 174.140625 230.882812 174.824219 232.320312 176.199219 C 233.691406 177.640625 234.378906 179.335938 234.378906 181.296875 C 234.378906 184.566406 234.378906 189.398438 234.378906 195.800781 C 231.175781 195.800781 226.375 195.800781 219.972656 195.800781 Z M 219.972656 195.800781 " fill-opacity="1" fill-rule="nonzero"/><path fill="#64ffda" d="M 187.488281 167.171875 L 235.050781 167.171875 L 239.925781 141.535156 L 233.894531 138.671875 C 232.546875 151.050781 222.550781 155.480469 213.796875 153.289062 C 201.816406 150.324219 191.878906 133.304688 191.878906 121.8125 L 182.78125 121.8125 C 182.78125 133.371094 173.277344 150.289062 161.199219 153.289062 C 152.441406 155.480469 142.449219 151.046875 141.09375 138.671875 L 135.070312 141.535156 L 139.945312 167.171875 Z M 187.488281 167.171875 " fill-opacity="1" fill-rule="evenodd"/><g clip-path="url(#6d8b74b42b)"><path fill="#64ffda" d="M 282.433594 129.691406 L 236.246094 103.023438 L 236.246094 103.046875 L 190.082031 76.390625 L 187.503906 74.898438 L 184.925781 76.390625 L 138.757812 103.046875 L 138.746094 103.023438 L 92.566406 129.691406 L 89.988281 131.171875 L 89.988281 243.761719 L 92.566406 245.246094 L 138.746094 271.910156 L 138.746094 271.933594 L 184.925781 298.597656 L 187.503906 300.082031 L 190.082031 298.597656 L 236.253906 271.933594 L 236.253906 271.910156 L 282.4375 245.246094 L 285.023438 243.761719 L 285.023438 131.171875 Z M 274.71875 187.484375 L 274.71875 237.851562 L 231.128906 263.027344 L 231.113281 263.003906 L 187.503906 288.175781 L 143.894531 263.003906 L 143.882812 263.027344 L 100.289062 237.851562 L 100.289062 137.136719 L 143.894531 111.960938 L 143.894531 111.933594 L 187.503906 86.761719 L 231.113281 111.933594 L 231.113281 111.960938 L 274.71875 137.136719 Z M 274.71875 187.484375 " fill-opacity="1" fill-rule="evenodd"/></g><g fill="#64ffda" fill-opacity="1"><g transform="translate(176.301043, 153.366308)"><g><path d="M 0.65625 -1.09375 C 0.71875 -1.164062 0.804688 -1.269531 0.921875 -1.40625 L 1.609375 -2.125 L 1.984375 -2.125 L 1.125 -1.21875 L 2.046875 0 L 1.65625 0 L 0.90625 -1 L 0.65625 -0.796875 L 0.65625 0 L 0.34375 0 L 0.34375 -3.03125 L 0.65625 -3.03125 L 0.65625 -1.421875 C 0.65625 -1.347656 0.648438 -1.238281 0.640625 -1.09375 Z M 0.65625 -1.09375 "/></g></g><g transform="translate(178.393061, 153.366308)"><g><path d="M 1.71875 -0.578125 C 1.71875 -0.378906 1.644531 -0.226562 1.5 -0.125 C 1.351562 -0.0195312 1.144531 0.03125 0.875 0.03125 C 0.59375 0.03125 0.375 -0.0078125 0.21875 -0.09375 L 0.21875 -0.390625 C 0.3125 -0.335938 0.414062 -0.296875 0.53125 -0.265625 C 0.65625 -0.242188 0.769531 -0.234375 0.875 -0.234375 C 1.050781 -0.234375 1.179688 -0.257812 1.265625 -0.3125 C 1.359375 -0.363281 1.40625 -0.441406 1.40625 -0.546875 C 1.40625 -0.628906 1.367188 -0.703125 1.296875 -0.765625 C 1.222656 -0.828125 1.082031 -0.898438 0.875 -0.984375 C 0.675781 -1.054688 0.535156 -1.117188 0.453125 -1.171875 C 0.367188 -1.222656 0.304688 -1.285156 0.265625 -1.359375 C 0.222656 -1.429688 0.203125 -1.515625 0.203125 -1.609375 C 0.203125 -1.785156 0.269531 -1.921875 0.40625 -2.015625 C 0.550781 -2.117188 0.75 -2.171875 1 -2.171875 C 1.226562 -2.171875 1.453125 -2.125 1.671875 -2.03125 L 1.5625 -1.765625 C 1.34375 -1.859375 1.148438 -1.90625 0.984375 -1.90625 C 0.828125 -1.90625 0.707031 -1.878906 0.625 -1.828125 C 0.550781 -1.773438 0.515625 -1.707031 0.515625 -1.625 C 0.515625 -1.570312 0.523438 -1.523438 0.546875 -1.484375 C 0.578125 -1.441406 0.625 -1.398438 0.6875 -1.359375 C 0.757812 -1.328125 0.890625 -1.28125 1.078125 -1.21875 C 1.328125 -1.125 1.492188 -1.03125 1.578125 -0.9375 C 1.671875 -0.84375 1.71875 -0.722656 1.71875 -0.578125 Z M 1.71875 -0.578125 "/></g></g><g transform="translate(180.294364, 153.366308)"><g><path d="M 0.671875 0 L 0.34375 0 L 0.34375 -2.125 L 0.671875 -2.125 Z M 0.3125 -2.703125 C 0.3125 -2.785156 0.328125 -2.84375 0.359375 -2.875 C 0.398438 -2.90625 0.445312 -2.921875 0.5 -2.921875 C 0.550781 -2.921875 0.597656 -2.898438 0.640625 -2.859375 C 0.679688 -2.828125 0.703125 -2.773438 0.703125 -2.703125 C 0.703125 -2.628906 0.679688 -2.578125 0.640625 -2.546875 C 0.597656 -2.515625 0.550781 -2.5 0.5 -2.5 C 0.445312 -2.5 0.398438 -2.515625 0.359375 -2.546875 C 0.328125 -2.578125 0.3125 -2.628906 0.3125 -2.703125 Z M 0.3125 -2.703125 "/></g></g><g transform="translate(181.302425, 153.366308)"><g><path d="M 1.65625 0 L 1.59375 -0.296875 L 1.578125 -0.296875 C 1.472656 -0.171875 1.363281 -0.0820312 1.25 -0.03125 C 1.144531 0.0078125 1.015625 0.03125 0.859375 0.03125 C 0.648438 0.03125 0.484375 -0.0195312 0.359375 -0.125 C 0.242188 -0.226562 0.1875 -0.382812 0.1875 -0.59375 C 0.1875 -1.019531 0.53125 -1.242188 1.21875 -1.265625 L 1.578125 -1.28125 L 1.578125 -1.40625 C 1.578125 -1.570312 1.539062 -1.695312 1.46875 -1.78125 C 1.394531 -1.863281 1.28125 -1.90625 1.125 -1.90625 C 0.945312 -1.90625 0.742188 -1.847656 0.515625 -1.734375 L 0.421875 -1.984375 C 0.523438 -2.035156 0.640625 -2.078125 0.765625 -2.109375 C 0.890625 -2.148438 1.015625 -2.171875 1.140625 -2.171875 C 1.398438 -2.171875 1.585938 -2.113281 1.703125 -2 C 1.828125 -1.882812 1.890625 -1.703125 1.890625 -1.453125 L 1.890625 0 Z M 0.921875 -0.234375 C 1.117188 -0.234375 1.273438 -0.285156 1.390625 -0.390625 C 1.503906 -0.503906 1.5625 -0.660156 1.5625 -0.859375 L 1.5625 -1.046875 L 1.25 -1.03125 C 0.988281 -1.019531 0.800781 -0.976562 0.6875 -0.90625 C 0.570312 -0.84375 0.515625 -0.734375 0.515625 -0.578125 C 0.515625 -0.460938 0.550781 -0.375 0.625 -0.3125 C 0.695312 -0.257812 0.796875 -0.234375 0.921875 -0.234375 Z M 0.921875 -0.234375 "/></g></g><g transform="translate(183.518991, 153.366308)"><g><path d="M 1.703125 0 L 0.15625 0 L 0.15625 -0.21875 L 1.328125 -1.875 L 0.234375 -1.875 L 0.234375 -2.125 L 1.671875 -2.125 L 1.671875 -1.875 L 0.53125 -0.25 L 1.703125 -0.25 Z M 1.703125 0 "/></g></g><g transform="translate(185.383319, 153.366308)"><g><path d="M 1.25 0.03125 C 0.925781 0.03125 0.671875 -0.0625 0.484375 -0.25 C 0.304688 -0.4375 0.21875 -0.703125 0.21875 -1.046875 C 0.21875 -1.390625 0.300781 -1.660156 0.46875 -1.859375 C 0.644531 -2.066406 0.875 -2.171875 1.15625 -2.171875 C 1.425781 -2.171875 1.640625 -2.082031 1.796875 -1.90625 C 1.953125 -1.726562 2.03125 -1.5 2.03125 -1.21875 L 2.03125 -1 L 0.5625 -1 C 0.5625 -0.75 0.617188 -0.5625 0.734375 -0.4375 C 0.859375 -0.3125 1.03125 -0.25 1.25 -0.25 C 1.476562 -0.25 1.707031 -0.296875 1.9375 -0.390625 L 1.9375 -0.09375 C 1.820312 -0.0507812 1.710938 -0.0195312 1.609375 0 C 1.503906 0.0195312 1.382812 0.03125 1.25 0.03125 Z M 1.15625 -1.90625 C 0.988281 -1.90625 0.851562 -1.847656 0.75 -1.734375 C 0.644531 -1.617188 0.582031 -1.460938 0.5625 -1.265625 L 1.6875 -1.265625 C 1.6875 -1.472656 1.640625 -1.628906 1.546875 -1.734375 C 1.453125 -1.847656 1.320312 -1.90625 1.15625 -1.90625 Z M 1.15625 -1.90625 "/></g></g><g transform="translate(187.619345, 153.366308)"><g><path d="M 0.65625 -1.09375 C 0.71875 -1.164062 0.804688 -1.269531 0.921875 -1.40625 L 1.609375 -2.125 L 1.984375 -2.125 L 1.125 -1.21875 L 2.046875 0 L 1.65625 0 L 0.90625 -1 L 0.65625 -0.796875 L 0.65625 0 L 0.34375 0 L 0.34375 -3.03125 L 0.65625 -3.03125 L 0.65625 -1.421875 C 0.65625 -1.347656 0.648438 -1.238281 0.640625 -1.09375 Z M 0.65625 -1.09375 "/></g></g><g transform="translate(189.711363, 153.366308)"><g><path d="M 1.1875 0.03125 C 0.882812 0.03125 0.644531 -0.0625 0.46875 -0.25 C 0.300781 -0.4375 0.21875 -0.703125 0.21875 -1.046875 C 0.21875 -1.410156 0.300781 -1.6875 0.46875 -1.875 C 0.644531 -2.070312 0.894531 -2.171875 1.21875 -2.171875 C 1.320312 -2.171875 1.421875 -2.160156 1.515625 -2.140625 C 1.617188 -2.117188 1.703125 -2.09375 1.765625 -2.0625 L 1.671875 -1.78125 C 1.597656 -1.8125 1.519531 -1.835938 1.4375 -1.859375 C 1.351562 -1.878906 1.273438 -1.890625 1.203125 -1.890625 C 0.773438 -1.890625 0.5625 -1.613281 0.5625 -1.0625 C 0.5625 -0.789062 0.613281 -0.585938 0.71875 -0.453125 C 0.820312 -0.316406 0.976562 -0.25 1.1875 -0.25 C 1.363281 -0.25 1.546875 -0.285156 1.734375 -0.359375 L 1.734375 -0.078125 C 1.585938 -0.00390625 1.40625 0.03125 1.1875 0.03125 Z M 1.1875 0.03125 "/></g></g><g transform="translate(191.608774, 153.366308)"><g><path d="M 2.1875 -1.0625 C 2.1875 -0.71875 2.097656 -0.445312 1.921875 -0.25 C 1.742188 -0.0625 1.5 0.03125 1.1875 0.03125 C 1 0.03125 0.832031 -0.0078125 0.6875 -0.09375 C 0.539062 -0.1875 0.425781 -0.316406 0.34375 -0.484375 C 0.257812 -0.648438 0.21875 -0.84375 0.21875 -1.0625 C 0.21875 -1.414062 0.304688 -1.6875 0.484375 -1.875 C 0.660156 -2.070312 0.898438 -2.171875 1.203125 -2.171875 C 1.503906 -2.171875 1.742188 -2.070312 1.921875 -1.875 C 2.097656 -1.675781 2.1875 -1.40625 2.1875 -1.0625 Z M 0.5625 -1.0625 C 0.5625 -0.789062 0.613281 -0.582031 0.71875 -0.4375 C 0.832031 -0.300781 0.992188 -0.234375 1.203125 -0.234375 C 1.410156 -0.234375 1.566406 -0.300781 1.671875 -0.4375 C 1.785156 -0.582031 1.84375 -0.789062 1.84375 -1.0625 C 1.84375 -1.332031 1.785156 -1.535156 1.671875 -1.671875 C 1.566406 -1.816406 1.410156 -1.890625 1.203125 -1.890625 C 0.984375 -1.890625 0.820312 -1.820312 0.71875 -1.6875 C 0.613281 -1.550781 0.5625 -1.34375 0.5625 -1.0625 Z M 0.5625 -1.0625 "/></g></g><g transform="translate(194.016054, 153.366308)"><g><path d="M 1.796875 -0.28125 L 1.78125 -0.28125 C 1.625 -0.0703125 1.398438 0.03125 1.109375 0.03125 C 0.828125 0.03125 0.609375 -0.0625 0.453125 -0.25 C 0.296875 -0.4375 0.21875 -0.707031 0.21875 -1.0625 C 0.21875 -1.414062 0.296875 -1.6875 0.453125 -1.875 C 0.609375 -2.070312 0.828125 -2.171875 1.109375 -2.171875 C 1.398438 -2.171875 1.617188 -2.066406 1.765625 -1.859375 L 1.796875 -1.859375 L 1.78125 -2.015625 L 1.78125 -3.03125 L 2.09375 -3.03125 L 2.09375 0 L 1.84375 0 Z M 1.140625 -0.234375 C 1.367188 -0.234375 1.53125 -0.289062 1.625 -0.40625 C 1.726562 -0.53125 1.78125 -0.726562 1.78125 -1 L 1.78125 -1.0625 C 1.78125 -1.363281 1.726562 -1.578125 1.625 -1.703125 C 1.519531 -1.835938 1.359375 -1.90625 1.140625 -1.90625 C 0.953125 -1.90625 0.804688 -1.828125 0.703125 -1.671875 C 0.609375 -1.523438 0.5625 -1.320312 0.5625 -1.0625 C 0.5625 -0.78125 0.609375 -0.570312 0.703125 -0.4375 C 0.804688 -0.300781 0.953125 -0.234375 1.140625 -0.234375 Z M 1.140625 -0.234375 "/></g></g><g transform="translate(196.458363, 153.366308)"><g><path d="M 1.25 0.03125 C 0.925781 0.03125 0.671875 -0.0625 0.484375 -0.25 C 0.304688 -0.4375 0.21875 -0.703125 0.21875 -1.046875 C 0.21875 -1.390625 0.300781 -1.660156 0.46875 -1.859375 C 0.644531 -2.066406 0.875 -2.171875 1.15625 -2.171875 C 1.425781 -2.171875 1.640625 -2.082031 1.796875 -1.90625 C 1.953125 -1.726562 2.03125 -1.5 2.03125 -1.21875 L 2.03125 -1 L 0.5625 -1 C 0.5625 -0.75 0.617188 -0.5625 0.734375 -0.4375 C 0.859375 -0.3125 1.03125 -0.25 1.25 -0.25 C 1.476562 -0.25 1.707031 -0.296875 1.9375 -0.390625 L 1.9375 -0.09375 C 1.820312 -0.0507812 1.710938 -0.0195312 1.609375 0 C 1.503906 0.0195312 1.382812 0.03125 1.25 0.03125 Z M 1.15625 -1.90625 C 0.988281 -1.90625 0.851562 -1.847656 0.75 -1.734375 C 0.644531 -1.617188 0.582031 -1.460938 0.5625 -1.265625 L 1.6875 -1.265625 C 1.6875 -1.472656 1.640625 -1.628906 1.546875 -1.734375 C 1.453125 -1.847656 1.320312 -1.90625 1.15625 -1.90625 Z M 1.15625 -1.90625 "/></g></g></g></svg>