<svg xmlns="http://www.w3.org/2000/svg" xmlns:xlink="http://www.w3.org/1999/xlink" width="100" zoomAndPan="magnify" viewBox="0 0 375 374.999991" height="100" preserveAspectRatio="xMidYMid meet" version="1.0"><defs><g/><clipPath id="0776625d01"><path d="M 114.074219 102.738281 L 261 102.738281 L 261 272.238281 L 114.074219 272.238281 Z M 114.074219 102.738281 " clip-rule="nonzero"/></clipPath></defs><path fill="#64ffda" d="M 182.847656 204.597656 C 182.847656 210.648438 182.847656 219.722656 182.847656 231.824219 C 180.4375 231.824219 176.820312 231.824219 172 231.824219 C 172 227.003906 172 219.75 172 210.058594 C 169.589844 210.058594 165.949219 210.058594 161.078125 210.058594 C 161.078125 214.882812 161.078125 222.132812 161.078125 231.824219 C 158.667969 231.824219 155.050781 231.824219 150.230469 231.824219 C 150.230469 225.777344 150.230469 218.222656 150.230469 209.171875 C 150.230469 200.121094 150.230469 189.542969 150.230469 177.441406 C 152.640625 177.441406 156.257812 177.441406 161.078125 177.441406 C 161.078125 182.261719 161.078125 189.519531 161.078125 199.207031 C 161.617188 199.207031 162.40625 199.207031 163.441406 199.207031 C 165.40625 194.339844 168.355469 187.082031 172.292969 177.441406 C 174.996094 177.441406 179.078125 177.441406 184.542969 177.441406 C 182.28125 182.261719 178.882812 189.519531 174.359375 199.207031 C 175.050781 199.207031 176.082031 199.207031 177.460938 199.207031 C 178.9375 199.207031 180.214844 199.726562 181.296875 200.757812 C 182.328125 201.84375 182.847656 203.121094 182.847656 204.597656 Z M 182.847656 204.597656 " fill-opacity="1" fill-rule="nonzero"/><path fill="#64ffda" d="M 211.941406 193.75 C 211.941406 192.519531 211.941406 190.699219 211.941406 188.289062 C 209.53125 188.289062 205.890625 188.289062 201.019531 188.289062 C 201.019531 195.570312 201.019531 206.46875 201.019531 220.976562 C 203.480469 220.976562 207.121094 220.976562 211.941406 220.976562 C 211.941406 219.75 211.941406 217.929688 211.941406 215.519531 C 214.351562 215.519531 217.964844 215.519531 222.789062 215.519531 C 222.789062 217.929688 222.789062 221.546875 222.789062 226.367188 C 222.789062 227.890625 222.273438 229.167969 221.238281 230.203125 C 220.15625 231.285156 218.878906 231.824219 217.402344 231.824219 C 212.53125 231.824219 205.277344 231.824219 195.636719 231.824219 C 194.109375 231.824219 192.832031 231.285156 191.800781 230.203125 C 190.71875 229.167969 190.179688 227.890625 190.179688 226.367188 C 190.179688 222.726562 190.179688 217.265625 190.179688 209.984375 C 190.179688 206.984375 190.179688 203.246094 190.179688 198.769531 C 190.179688 194.191406 190.179688 188.882812 190.179688 182.832031 C 190.179688 181.355469 190.71875 180.078125 191.800781 178.996094 C 192.832031 177.960938 194.109375 177.441406 195.636719 177.441406 C 200.457031 177.441406 207.710938 177.441406 217.402344 177.441406 C 218.878906 177.441406 220.15625 177.957031 221.238281 178.996094 C 222.273438 180.078125 222.789062 181.355469 222.789062 182.832031 C 222.789062 185.289062 222.789062 188.929688 222.789062 193.75 C 220.375 193.75 216.761719 193.75 211.941406 193.75 Z M 211.941406 193.75 " fill-opacity="1" fill-rule="nonzero"/><path fill="#64ffda" d="M 187.492188 172.195312 L 223.292969 172.195312 L 226.964844 152.898438 L 222.425781 150.742188 C 221.410156 160.0625 213.886719 163.398438 207.296875 161.746094 C 198.277344 159.515625 190.796875 146.703125 190.796875 138.050781 L 183.949219 138.050781 C 183.949219 146.753906 176.792969 159.488281 167.703125 161.746094 C 161.109375 163.398438 153.585938 160.058594 152.566406 150.742188 L 148.03125 152.898438 L 151.703125 172.195312 Z M 187.492188 172.195312 " fill-opacity="1" fill-rule="evenodd"/><g clip-path="url(#0776625d01)"><path fill="#64ffda" d="M 258.964844 143.980469 L 224.195312 123.910156 L 224.195312 123.925781 L 189.441406 103.859375 L 187.5 102.738281 L 185.5625 103.859375 L 150.808594 123.925781 L 150.800781 123.910156 L 116.035156 143.980469 L 114.09375 145.097656 L 114.09375 229.851562 L 116.035156 230.96875 L 150.800781 251.042969 L 150.800781 251.058594 L 185.5625 271.132812 L 187.5 272.25 L 189.441406 271.132812 L 224.199219 251.058594 L 224.199219 251.042969 L 258.96875 230.96875 L 260.910156 229.851562 L 260.910156 145.097656 Z M 253.15625 187.488281 L 253.15625 225.402344 L 220.339844 244.355469 L 220.332031 244.335938 L 187.5 263.289062 L 154.675781 244.335938 L 154.664062 244.355469 L 121.851562 225.402344 L 121.851562 149.585938 L 154.675781 130.636719 L 154.675781 130.613281 L 187.5 111.667969 L 220.332031 130.613281 L 220.332031 130.636719 L 253.15625 149.585938 Z M 253.15625 187.488281 " fill-opacity="1" fill-rule="evenodd"/></g><g fill="#64ffda" fill-opacity="1"><g transform="translate(179.069743, 161.805102)"><g><path d="M 0.5 -0.828125 C 0.539062 -0.878906 0.601562 -0.957031 0.6875 -1.0625 L 1.203125 -1.609375 L 1.5 -1.609375 L 0.84375 -0.921875 L 1.546875 0 L 1.25 0 L 0.6875 -0.765625 L 0.5 -0.59375 L 0.5 0 L 0.265625 0 L 0.265625 -2.28125 L 0.5 -2.28125 L 0.5 -1.078125 C 0.5 -1.015625 0.492188 -0.929688 0.484375 -0.828125 Z M 0.5 -0.828125 "/></g></g><g transform="translate(180.644556, 161.805102)"><g><path d="M 1.296875 -0.4375 C 1.296875 -0.289062 1.238281 -0.175781 1.125 -0.09375 C 1.007812 -0.0078125 0.851562 0.03125 0.65625 0.03125 C 0.445312 0.03125 0.28125 -0.00390625 0.15625 -0.078125 L 0.15625 -0.296875 C 0.238281 -0.253906 0.320312 -0.222656 0.40625 -0.203125 C 0.5 -0.179688 0.582031 -0.171875 0.65625 -0.171875 C 0.789062 -0.171875 0.890625 -0.191406 0.953125 -0.234375 C 1.023438 -0.273438 1.0625 -0.335938 1.0625 -0.421875 C 1.0625 -0.484375 1.03125 -0.535156 0.96875 -0.578125 C 0.914062 -0.617188 0.8125 -0.671875 0.65625 -0.734375 C 0.507812 -0.785156 0.40625 -0.832031 0.34375 -0.875 C 0.28125 -0.914062 0.234375 -0.960938 0.203125 -1.015625 C 0.171875 -1.078125 0.15625 -1.144531 0.15625 -1.21875 C 0.15625 -1.34375 0.207031 -1.441406 0.3125 -1.515625 C 0.414062 -1.597656 0.5625 -1.640625 0.75 -1.640625 C 0.925781 -1.640625 1.097656 -1.601562 1.265625 -1.53125 L 1.171875 -1.328125 C 1.015625 -1.398438 0.867188 -1.4375 0.734375 -1.4375 C 0.617188 -1.4375 0.53125 -1.414062 0.46875 -1.375 C 0.414062 -1.34375 0.390625 -1.296875 0.390625 -1.234375 C 0.390625 -1.179688 0.398438 -1.140625 0.421875 -1.109375 C 0.441406 -1.085938 0.472656 -1.0625 0.515625 -1.03125 C 0.566406 -1 0.664062 -0.957031 0.8125 -0.90625 C 1 -0.84375 1.125 -0.773438 1.1875 -0.703125 C 1.257812 -0.628906 1.296875 -0.539062 1.296875 -0.4375 Z M 1.296875 -0.4375 "/></g></g><g transform="translate(182.075804, 161.805102)"><g><path d="M 0.5 0 L 0.265625 0 L 0.265625 -1.609375 L 0.5 -1.609375 Z M 0.234375 -2.046875 C 0.234375 -2.097656 0.242188 -2.132812 0.265625 -2.15625 C 0.296875 -2.1875 0.332031 -2.203125 0.375 -2.203125 C 0.414062 -2.203125 0.453125 -2.1875 0.484375 -2.15625 C 0.515625 -2.132812 0.53125 -2.097656 0.53125 -2.046875 C 0.53125 -1.984375 0.515625 -1.9375 0.484375 -1.90625 C 0.453125 -1.882812 0.414062 -1.875 0.375 -1.875 C 0.332031 -1.875 0.296875 -1.882812 0.265625 -1.90625 C 0.242188 -1.9375 0.234375 -1.984375 0.234375 -2.046875 Z M 0.234375 -2.046875 "/></g></g><g transform="translate(182.834645, 161.805102)"><g><path d="M 1.25 0 L 1.203125 -0.234375 L 1.1875 -0.234375 C 1.101562 -0.128906 1.019531 -0.0546875 0.9375 -0.015625 C 0.863281 0.015625 0.765625 0.03125 0.640625 0.03125 C 0.484375 0.03125 0.359375 -0.0078125 0.265625 -0.09375 C 0.179688 -0.175781 0.140625 -0.289062 0.140625 -0.4375 C 0.140625 -0.769531 0.398438 -0.941406 0.921875 -0.953125 L 1.1875 -0.96875 L 1.1875 -1.0625 C 1.1875 -1.1875 1.160156 -1.28125 1.109375 -1.34375 C 1.054688 -1.40625 0.96875 -1.4375 0.84375 -1.4375 C 0.707031 -1.4375 0.554688 -1.394531 0.390625 -1.3125 L 0.3125 -1.5 C 0.394531 -1.539062 0.484375 -1.570312 0.578125 -1.59375 C 0.671875 -1.613281 0.765625 -1.625 0.859375 -1.625 C 1.054688 -1.625 1.195312 -1.582031 1.28125 -1.5 C 1.375 -1.414062 1.421875 -1.28125 1.421875 -1.09375 L 1.421875 0 Z M 0.703125 -0.171875 C 0.847656 -0.171875 0.960938 -0.210938 1.046875 -0.296875 C 1.140625 -0.378906 1.1875 -0.492188 1.1875 -0.640625 L 1.1875 -0.796875 L 0.9375 -0.78125 C 0.75 -0.769531 0.609375 -0.738281 0.515625 -0.6875 C 0.429688 -0.632812 0.390625 -0.550781 0.390625 -0.4375 C 0.390625 -0.351562 0.414062 -0.285156 0.46875 -0.234375 C 0.519531 -0.191406 0.597656 -0.171875 0.703125 -0.171875 Z M 0.703125 -0.171875 "/></g></g><g transform="translate(184.503214, 161.805102)"><g><path d="M 1.28125 0 L 0.125 0 L 0.125 -0.171875 L 1 -1.421875 L 0.171875 -1.421875 L 0.171875 -1.609375 L 1.265625 -1.609375 L 1.265625 -1.421875 L 0.40625 -0.1875 L 1.28125 -0.1875 Z M 1.28125 0 "/></g></g><g transform="translate(185.906628, 161.805102)"><g><path d="M 0.9375 0.03125 C 0.695312 0.03125 0.507812 -0.0390625 0.375 -0.1875 C 0.238281 -0.332031 0.171875 -0.535156 0.171875 -0.796875 C 0.171875 -1.046875 0.234375 -1.25 0.359375 -1.40625 C 0.484375 -1.5625 0.65625 -1.640625 0.875 -1.640625 C 1.070312 -1.640625 1.226562 -1.570312 1.34375 -1.4375 C 1.46875 -1.300781 1.53125 -1.125 1.53125 -0.90625 L 1.53125 -0.765625 L 0.421875 -0.765625 C 0.421875 -0.566406 0.46875 -0.421875 0.5625 -0.328125 C 0.65625 -0.234375 0.78125 -0.1875 0.9375 -0.1875 C 1.113281 -0.1875 1.285156 -0.222656 1.453125 -0.296875 L 1.453125 -0.078125 C 1.367188 -0.0351562 1.285156 -0.0078125 1.203125 0 C 1.128906 0.0195312 1.039062 0.03125 0.9375 0.03125 Z M 0.875 -1.4375 C 0.738281 -1.4375 0.632812 -1.390625 0.5625 -1.296875 C 0.488281 -1.210938 0.441406 -1.097656 0.421875 -0.953125 L 1.265625 -0.953125 C 1.265625 -1.109375 1.226562 -1.226562 1.15625 -1.3125 C 1.09375 -1.394531 1 -1.4375 0.875 -1.4375 Z M 0.875 -1.4375 "/></g></g><g transform="translate(187.589847, 161.805102)"><g><path d="M 0.5 -0.828125 C 0.539062 -0.878906 0.601562 -0.957031 0.6875 -1.0625 L 1.203125 -1.609375 L 1.5 -1.609375 L 0.84375 -0.921875 L 1.546875 0 L 1.25 0 L 0.6875 -0.765625 L 0.5 -0.59375 L 0.5 0 L 0.265625 0 L 0.265625 -2.28125 L 0.5 -2.28125 L 0.5 -1.078125 C 0.5 -1.015625 0.492188 -0.929688 0.484375 -0.828125 Z M 0.5 -0.828125 "/></g></g><g transform="translate(189.16466, 161.805102)"><g><path d="M 0.90625 0.03125 C 0.664062 0.03125 0.484375 -0.0390625 0.359375 -0.1875 C 0.234375 -0.332031 0.171875 -0.535156 0.171875 -0.796875 C 0.171875 -1.066406 0.234375 -1.273438 0.359375 -1.421875 C 0.492188 -1.566406 0.679688 -1.640625 0.921875 -1.640625 C 0.992188 -1.640625 1.066406 -1.628906 1.140625 -1.609375 C 1.222656 -1.585938 1.285156 -1.566406 1.328125 -1.546875 L 1.25 -1.34375 C 1.195312 -1.363281 1.140625 -1.378906 1.078125 -1.390625 C 1.015625 -1.410156 0.957031 -1.421875 0.90625 -1.421875 C 0.582031 -1.421875 0.421875 -1.210938 0.421875 -0.796875 C 0.421875 -0.597656 0.457031 -0.445312 0.53125 -0.34375 C 0.613281 -0.238281 0.734375 -0.1875 0.890625 -0.1875 C 1.023438 -0.1875 1.164062 -0.210938 1.3125 -0.265625 L 1.3125 -0.046875 C 1.195312 0.00390625 1.0625 0.03125 0.90625 0.03125 Z M 0.90625 0.03125 "/></g></g><g transform="translate(190.592978, 161.805102)"><g><path d="M 1.640625 -0.796875 C 1.640625 -0.535156 1.570312 -0.332031 1.4375 -0.1875 C 1.3125 -0.0390625 1.132812 0.03125 0.90625 0.03125 C 0.757812 0.03125 0.628906 0 0.515625 -0.0625 C 0.398438 -0.132812 0.3125 -0.234375 0.25 -0.359375 C 0.195312 -0.484375 0.171875 -0.628906 0.171875 -0.796875 C 0.171875 -1.066406 0.234375 -1.273438 0.359375 -1.421875 C 0.492188 -1.566406 0.675781 -1.640625 0.90625 -1.640625 C 1.132812 -1.640625 1.3125 -1.5625 1.4375 -1.40625 C 1.570312 -1.257812 1.640625 -1.054688 1.640625 -0.796875 Z M 0.421875 -0.796875 C 0.421875 -0.597656 0.460938 -0.441406 0.546875 -0.328125 C 0.628906 -0.222656 0.75 -0.171875 0.90625 -0.171875 C 1.0625 -0.171875 1.179688 -0.222656 1.265625 -0.328125 C 1.347656 -0.441406 1.390625 -0.597656 1.390625 -0.796875 C 1.390625 -1.003906 1.347656 -1.160156 1.265625 -1.265625 C 1.179688 -1.367188 1.0625 -1.421875 0.90625 -1.421875 C 0.738281 -1.421875 0.613281 -1.367188 0.53125 -1.265625 C 0.457031 -1.160156 0.421875 -1.003906 0.421875 -0.796875 Z M 0.421875 -0.796875 "/></g></g><g transform="translate(192.405112, 161.805102)"><g><path d="M 1.34375 -0.21875 C 1.226562 -0.0507812 1.054688 0.03125 0.828125 0.03125 C 0.617188 0.03125 0.457031 -0.0390625 0.34375 -0.1875 C 0.226562 -0.332031 0.171875 -0.535156 0.171875 -0.796875 C 0.171875 -1.066406 0.226562 -1.273438 0.34375 -1.421875 C 0.457031 -1.566406 0.617188 -1.640625 0.828125 -1.640625 C 1.046875 -1.640625 1.210938 -1.554688 1.328125 -1.390625 L 1.359375 -1.390625 L 1.34375 -1.515625 L 1.34375 -2.28125 L 1.578125 -2.28125 L 1.578125 0 L 1.390625 0 Z M 0.859375 -0.171875 C 1.023438 -0.171875 1.144531 -0.21875 1.21875 -0.3125 C 1.300781 -0.40625 1.34375 -0.550781 1.34375 -0.75 L 1.34375 -0.796875 C 1.34375 -1.023438 1.300781 -1.1875 1.21875 -1.28125 C 1.144531 -1.382812 1.023438 -1.4375 0.859375 -1.4375 C 0.710938 -1.4375 0.601562 -1.378906 0.53125 -1.265625 C 0.457031 -1.148438 0.421875 -0.992188 0.421875 -0.796875 C 0.421875 -0.585938 0.457031 -0.429688 0.53125 -0.328125 C 0.601562 -0.222656 0.710938 -0.171875 0.859375 -0.171875 Z M 0.859375 -0.171875 "/></g></g><g transform="translate(194.243614, 161.805102)"><g><path d="M 0.9375 0.03125 C 0.695312 0.03125 0.507812 -0.0390625 0.375 -0.1875 C 0.238281 -0.332031 0.171875 -0.535156 0.171875 -0.796875 C 0.171875 -1.046875 0.234375 -1.25 0.359375 -1.40625 C 0.484375 -1.5625 0.65625 -1.640625 0.875 -1.640625 C 1.070312 -1.640625 1.226562 -1.570312 1.34375 -1.4375 C 1.46875 -1.300781 1.53125 -1.125 1.53125 -0.90625 L 1.53125 -0.765625 L 0.421875 -0.765625 C 0.421875 -0.566406 0.46875 -0.421875 0.5625 -0.328125 C 0.65625 -0.234375 0.78125 -0.1875 0.9375 -0.1875 C 1.113281 -0.1875 1.285156 -0.222656 1.453125 -0.296875 L 1.453125 -0.078125 C 1.367188 -0.0351562 1.285156 -0.0078125 1.203125 0 C 1.128906 0.0195312 1.039062 0.03125 0.9375 0.03125 Z M 0.875 -1.4375 C 0.738281 -1.4375 0.632812 -1.390625 0.5625 -1.296875 C 0.488281 -1.210938 0.441406 -1.097656 0.421875 -0.953125 L 1.265625 -0.953125 C 1.265625 -1.109375 1.226562 -1.226562 1.15625 -1.3125 C 1.09375 -1.394531 1 -1.4375 0.875 -1.4375 Z M 0.875 -1.4375 "/></g></g></g></svg>