<svg xmlns="http://www.w3.org/2000/svg" xmlns:xlink="http://www.w3.org/1999/xlink" width="100" zoomAndPan="magnify" viewBox="0 0 375 374.999991" height="100" preserveAspectRatio="xMidYMid meet" version="1.0"><defs><g/><clipPath id="551e98bb08"><path d="M 37.5 14.339844 L 337.9375 14.339844 L 337.9375 360.765625 L 37.5 360.765625 Z M 37.5 14.339844 " clip-rule="nonzero"/></clipPath></defs><path fill="#64ffda" d="M 178.058594 222.519531 C 178.058594 234.890625 178.058594 253.433594 178.058594 278.167969 C 173.132812 278.167969 165.742188 278.167969 155.890625 278.167969 C 155.890625 268.316406 155.890625 253.488281 155.890625 233.683594 C 150.964844 233.683594 143.523438 233.683594 133.570312 233.683594 C 133.570312 243.542969 133.570312 258.363281 133.570312 278.167969 C 128.644531 278.167969 121.25 278.167969 111.398438 278.167969 C 111.398438 265.808594 111.398438 250.371094 111.398438 231.871094 C 111.398438 213.371094 111.398438 191.753906 111.398438 167.023438 C 116.324219 167.023438 123.71875 167.023438 133.570312 167.023438 C 133.570312 176.875 133.570312 191.703125 133.570312 211.507812 C 134.671875 211.507812 136.28125 211.507812 138.394531 211.507812 C 142.410156 201.554688 148.441406 186.726562 156.484375 167.023438 C 162.011719 167.023438 170.355469 167.023438 181.519531 167.023438 C 176.898438 176.875 169.957031 191.703125 160.714844 211.507812 C 162.121094 211.507812 164.234375 211.507812 167.046875 211.507812 C 170.066406 211.507812 172.675781 212.566406 174.890625 214.679688 C 177 216.890625 178.058594 219.503906 178.058594 222.519531 Z M 178.058594 222.519531 " fill-opacity="1" fill-rule="nonzero"/><path fill="#64ffda" d="M 237.523438 200.351562 C 237.523438 197.839844 237.523438 194.121094 237.523438 189.195312 C 232.597656 189.195312 225.15625 189.195312 215.203125 189.195312 C 215.203125 204.074219 215.203125 226.34375 215.203125 256 C 220.230469 256 227.667969 256 237.523438 256 C 237.523438 253.488281 237.523438 249.769531 237.523438 244.84375 C 242.449219 244.84375 249.835938 244.84375 259.695312 244.84375 C 259.695312 249.769531 259.695312 257.160156 259.695312 267.011719 C 259.695312 270.132812 258.636719 272.742188 256.523438 274.855469 C 254.3125 277.066406 251.699219 278.167969 248.683594 278.167969 C 238.730469 278.167969 223.902344 278.167969 204.199219 278.167969 C 201.078125 278.167969 198.46875 277.066406 196.355469 274.855469 C 194.144531 272.742188 193.039062 270.132812 193.039062 267.011719 C 193.039062 259.578125 193.039062 248.410156 193.039062 233.53125 C 193.039062 227.402344 193.039062 219.765625 193.039062 210.609375 C 193.039062 201.257812 193.039062 190.40625 193.039062 178.035156 C 193.039062 175.019531 194.144531 172.40625 196.355469 170.195312 C 198.46875 168.082031 201.078125 167.023438 204.199219 167.023438 C 214.050781 167.023438 228.878906 167.023438 248.683594 167.023438 C 251.699219 167.023438 254.3125 168.074219 256.523438 170.195312 C 258.636719 172.40625 259.695312 175.019531 259.695312 178.035156 C 259.695312 183.0625 259.695312 190.5 259.695312 200.351562 C 254.761719 200.351562 247.375 200.351562 237.523438 200.351562 Z M 237.523438 200.351562 " fill-opacity="1" fill-rule="nonzero"/><path fill="#64ffda" d="M 187.550781 156.300781 L 260.726562 156.300781 L 268.226562 116.859375 L 258.949219 112.457031 C 256.871094 131.5 241.492188 138.316406 228.027344 134.945312 C 209.59375 130.382812 194.304688 104.199219 194.304688 86.515625 L 180.308594 86.515625 C 180.308594 104.300781 165.683594 130.332031 147.105469 134.945312 C 133.625 138.316406 118.253906 131.492188 116.171875 112.457031 L 106.902344 116.859375 L 114.402344 156.300781 Z M 187.550781 156.300781 " fill-opacity="1" fill-rule="evenodd"/><g clip-path="url(#551e98bb08)"><path fill="#64ffda" d="M 333.625 98.636719 L 262.566406 57.613281 L 262.566406 57.648438 L 191.539062 16.632812 L 187.570312 14.339844 L 183.609375 16.632812 L 112.574219 57.648438 L 112.558594 57.613281 L 41.511719 98.636719 L 37.542969 100.914062 L 37.542969 274.136719 L 41.511719 276.421875 L 112.558594 317.445312 L 112.558594 317.480469 L 183.609375 358.503906 L 187.570312 360.789062 L 191.539062 358.503906 L 262.574219 317.480469 L 262.574219 317.445312 L 333.632812 276.421875 L 337.605469 274.136719 L 337.605469 100.914062 Z M 321.757812 187.554688 L 321.757812 265.046875 L 254.6875 303.777344 L 254.667969 303.742188 L 187.570312 342.472656 L 120.480469 303.742188 L 120.460938 303.777344 L 53.394531 265.046875 L 53.394531 110.089844 L 120.480469 71.359375 L 120.480469 71.316406 L 187.570312 32.59375 L 254.667969 71.316406 L 254.667969 71.359375 L 321.757812 110.089844 Z M 321.757812 187.554688 " fill-opacity="1" fill-rule="evenodd"/></g><g fill="#64ffda" fill-opacity="1"><g transform="translate(170.338119, 135.063134)"><g><path d="M 1.015625 -1.671875 C 1.097656 -1.796875 1.226562 -1.957031 1.40625 -2.15625 L 2.46875 -3.28125 L 3.0625 -3.28125 L 1.734375 -1.875 L 3.15625 0 L 2.546875 0 L 1.390625 -1.546875 L 1.015625 -1.21875 L 1.015625 0 L 0.53125 0 L 0.53125 -4.65625 L 1.015625 -4.65625 L 1.015625 -2.1875 C 1.015625 -2.070312 1.007812 -1.898438 1 -1.671875 Z M 1.015625 -1.671875 "/></g></g><g transform="translate(173.556722, 135.063134)"><g><path d="M 2.640625 -0.890625 C 2.640625 -0.585938 2.523438 -0.351562 2.296875 -0.1875 C 2.066406 -0.0195312 1.75 0.0625 1.34375 0.0625 C 0.90625 0.0625 0.566406 -0.00390625 0.328125 -0.140625 L 0.328125 -0.609375 C 0.484375 -0.523438 0.648438 -0.457031 0.828125 -0.40625 C 1.015625 -0.363281 1.191406 -0.34375 1.359375 -0.34375 C 1.617188 -0.34375 1.816406 -0.382812 1.953125 -0.46875 C 2.085938 -0.550781 2.15625 -0.679688 2.15625 -0.859375 C 2.15625 -0.984375 2.097656 -1.085938 1.984375 -1.171875 C 1.878906 -1.265625 1.664062 -1.375 1.34375 -1.5 C 1.039062 -1.613281 0.820312 -1.710938 0.6875 -1.796875 C 0.5625 -1.878906 0.46875 -1.972656 0.40625 -2.078125 C 0.34375 -2.191406 0.3125 -2.320312 0.3125 -2.46875 C 0.3125 -2.738281 0.421875 -2.953125 0.640625 -3.109375 C 0.859375 -3.265625 1.15625 -3.34375 1.53125 -3.34375 C 1.882812 -3.34375 2.234375 -3.269531 2.578125 -3.125 L 2.390625 -2.71875 C 2.066406 -2.851562 1.769531 -2.921875 1.5 -2.921875 C 1.269531 -2.921875 1.09375 -2.882812 0.96875 -2.8125 C 0.851562 -2.738281 0.796875 -2.632812 0.796875 -2.5 C 0.796875 -2.414062 0.816406 -2.34375 0.859375 -2.28125 C 0.898438 -2.21875 0.96875 -2.15625 1.0625 -2.09375 C 1.164062 -2.039062 1.359375 -1.960938 1.640625 -1.859375 C 2.035156 -1.722656 2.300781 -1.582031 2.4375 -1.4375 C 2.570312 -1.289062 2.640625 -1.109375 2.640625 -0.890625 Z M 2.640625 -0.890625 "/></g></g><g transform="translate(176.481909, 135.063134)"><g><path d="M 1.015625 0 L 0.53125 0 L 0.53125 -3.28125 L 1.015625 -3.28125 Z M 0.484375 -4.171875 C 0.484375 -4.285156 0.507812 -4.367188 0.5625 -4.421875 C 0.625 -4.472656 0.695312 -4.5 0.78125 -4.5 C 0.851562 -4.5 0.921875 -4.46875 0.984375 -4.40625 C 1.046875 -4.351562 1.078125 -4.273438 1.078125 -4.171875 C 1.078125 -4.054688 1.046875 -3.96875 0.984375 -3.90625 C 0.921875 -3.851562 0.851562 -3.828125 0.78125 -3.828125 C 0.695312 -3.828125 0.625 -3.851562 0.5625 -3.90625 C 0.507812 -3.96875 0.484375 -4.054688 0.484375 -4.171875 Z M 0.484375 -4.171875 "/></g></g><g transform="translate(178.032827, 135.063134)"><g><path d="M 2.546875 0 L 2.4375 -0.46875 L 2.421875 -0.46875 C 2.253906 -0.257812 2.085938 -0.117188 1.921875 -0.046875 C 1.765625 0.0234375 1.566406 0.0625 1.328125 0.0625 C 0.992188 0.0625 0.734375 -0.0195312 0.546875 -0.1875 C 0.367188 -0.351562 0.28125 -0.59375 0.28125 -0.90625 C 0.28125 -1.570312 0.8125 -1.921875 1.875 -1.953125 L 2.421875 -1.96875 L 2.421875 -2.171875 C 2.421875 -2.421875 2.363281 -2.609375 2.25 -2.734375 C 2.144531 -2.859375 1.972656 -2.921875 1.734375 -2.921875 C 1.453125 -2.921875 1.140625 -2.835938 0.796875 -2.671875 L 0.65625 -3.046875 C 0.8125 -3.140625 0.984375 -3.207031 1.171875 -3.25 C 1.367188 -3.300781 1.566406 -3.328125 1.765625 -3.328125 C 2.148438 -3.328125 2.4375 -3.238281 2.625 -3.0625 C 2.8125 -2.894531 2.90625 -2.617188 2.90625 -2.234375 L 2.90625 0 Z M 1.421875 -0.34375 C 1.734375 -0.34375 1.972656 -0.425781 2.140625 -0.59375 C 2.316406 -0.769531 2.40625 -1.007812 2.40625 -1.3125 L 2.40625 -1.609375 L 1.921875 -1.59375 C 1.523438 -1.570312 1.238281 -1.507812 1.0625 -1.40625 C 0.882812 -1.300781 0.796875 -1.132812 0.796875 -0.90625 C 0.796875 -0.71875 0.847656 -0.578125 0.953125 -0.484375 C 1.066406 -0.390625 1.222656 -0.34375 1.421875 -0.34375 Z M 1.421875 -0.34375 "/></g></g><g transform="translate(181.443049, 135.063134)"><g><path d="M 2.625 0 L 0.25 0 L 0.25 -0.34375 L 2.03125 -2.890625 L 0.359375 -2.890625 L 0.359375 -3.28125 L 2.578125 -3.28125 L 2.578125 -2.890625 L 0.8125 -0.390625 L 2.625 -0.390625 Z M 2.625 0 "/></g></g><g transform="translate(184.311349, 135.063134)"><g><path d="M 1.90625 0.0625 C 1.425781 0.0625 1.046875 -0.0820312 0.765625 -0.375 C 0.484375 -0.675781 0.34375 -1.085938 0.34375 -1.609375 C 0.34375 -2.140625 0.472656 -2.5625 0.734375 -2.875 C 0.992188 -3.1875 1.34375 -3.34375 1.78125 -3.34375 C 2.195312 -3.34375 2.519531 -3.207031 2.75 -2.9375 C 2.988281 -2.664062 3.109375 -2.304688 3.109375 -1.859375 L 3.109375 -1.546875 L 0.859375 -1.546875 C 0.867188 -1.160156 0.960938 -0.867188 1.140625 -0.671875 C 1.328125 -0.472656 1.585938 -0.375 1.921875 -0.375 C 2.273438 -0.375 2.625 -0.445312 2.96875 -0.59375 L 2.96875 -0.15625 C 2.800781 -0.0703125 2.640625 -0.015625 2.484375 0.015625 C 2.328125 0.046875 2.132812 0.0625 1.90625 0.0625 Z M 1.78125 -2.921875 C 1.507812 -2.921875 1.296875 -2.832031 1.140625 -2.65625 C 0.984375 -2.488281 0.894531 -2.253906 0.875 -1.953125 L 2.578125 -1.953125 C 2.578125 -2.265625 2.507812 -2.503906 2.375 -2.671875 C 2.238281 -2.835938 2.039062 -2.921875 1.78125 -2.921875 Z M 1.78125 -2.921875 "/></g></g><g transform="translate(187.751512, 135.063134)"><g><path d="M 1.015625 -1.671875 C 1.097656 -1.796875 1.226562 -1.957031 1.40625 -2.15625 L 2.46875 -3.28125 L 3.0625 -3.28125 L 1.734375 -1.875 L 3.15625 0 L 2.546875 0 L 1.390625 -1.546875 L 1.015625 -1.21875 L 1.015625 0 L 0.53125 0 L 0.53125 -4.65625 L 1.015625 -4.65625 L 1.015625 -2.1875 C 1.015625 -2.070312 1.007812 -1.898438 1 -1.671875 Z M 1.015625 -1.671875 "/></g></g><g transform="translate(190.970116, 135.063134)"><g><path d="M 1.84375 0.0625 C 1.363281 0.0625 0.992188 -0.0820312 0.734375 -0.375 C 0.472656 -0.664062 0.34375 -1.082031 0.34375 -1.625 C 0.34375 -2.164062 0.472656 -2.585938 0.734375 -2.890625 C 1.003906 -3.191406 1.382812 -3.34375 1.875 -3.34375 C 2.03125 -3.34375 2.1875 -3.320312 2.34375 -3.28125 C 2.5 -3.25 2.625 -3.210938 2.71875 -3.171875 L 2.5625 -2.75 C 2.445312 -2.789062 2.320312 -2.820312 2.1875 -2.84375 C 2.0625 -2.875 1.953125 -2.890625 1.859375 -2.890625 C 1.191406 -2.890625 0.859375 -2.46875 0.859375 -1.625 C 0.859375 -1.21875 0.9375 -0.90625 1.09375 -0.6875 C 1.257812 -0.476562 1.503906 -0.375 1.828125 -0.375 C 2.097656 -0.375 2.378906 -0.429688 2.671875 -0.546875 L 2.671875 -0.109375 C 2.441406 0.00390625 2.164062 0.0625 1.84375 0.0625 Z M 1.84375 0.0625 "/></g></g><g transform="translate(193.889314, 135.063134)"><g><path d="M 3.359375 -1.640625 C 3.359375 -1.109375 3.222656 -0.691406 2.953125 -0.390625 C 2.679688 -0.0859375 2.3125 0.0625 1.84375 0.0625 C 1.539062 0.0625 1.273438 -0.00390625 1.046875 -0.140625 C 0.828125 -0.285156 0.65625 -0.484375 0.53125 -0.734375 C 0.40625 -0.992188 0.34375 -1.296875 0.34375 -1.640625 C 0.34375 -2.171875 0.472656 -2.585938 0.734375 -2.890625 C 1.003906 -3.191406 1.378906 -3.34375 1.859375 -3.34375 C 2.316406 -3.34375 2.679688 -3.1875 2.953125 -2.875 C 3.222656 -2.570312 3.359375 -2.160156 3.359375 -1.640625 Z M 0.859375 -1.640625 C 0.859375 -1.222656 0.941406 -0.90625 1.109375 -0.6875 C 1.273438 -0.46875 1.519531 -0.359375 1.84375 -0.359375 C 2.164062 -0.359375 2.410156 -0.46875 2.578125 -0.6875 C 2.753906 -0.90625 2.84375 -1.222656 2.84375 -1.640625 C 2.84375 -2.054688 2.753906 -2.375 2.578125 -2.59375 C 2.410156 -2.8125 2.164062 -2.921875 1.84375 -2.921875 C 1.519531 -2.921875 1.273438 -2.8125 1.109375 -2.59375 C 0.941406 -2.382812 0.859375 -2.066406 0.859375 -1.640625 Z M 0.859375 -1.640625 "/></g></g><g transform="translate(197.592954, 135.063134)"><g><path d="M 2.75 -0.4375 L 2.734375 -0.4375 C 2.503906 -0.101562 2.160156 0.0625 1.703125 0.0625 C 1.273438 0.0625 0.941406 -0.0820312 0.703125 -0.375 C 0.460938 -0.664062 0.34375 -1.082031 0.34375 -1.625 C 0.34375 -2.164062 0.460938 -2.585938 0.703125 -2.890625 C 0.941406 -3.191406 1.273438 -3.34375 1.703125 -3.34375 C 2.148438 -3.34375 2.488281 -3.179688 2.71875 -2.859375 L 2.765625 -2.859375 L 2.75 -3.09375 L 2.734375 -3.3125 L 2.734375 -4.65625 L 3.234375 -4.65625 L 3.234375 0 L 2.828125 0 Z M 1.765625 -0.359375 C 2.097656 -0.359375 2.34375 -0.445312 2.5 -0.625 C 2.65625 -0.8125 2.734375 -1.113281 2.734375 -1.53125 L 2.734375 -1.625 C 2.734375 -2.09375 2.65625 -2.425781 2.5 -2.625 C 2.34375 -2.820312 2.097656 -2.921875 1.765625 -2.921875 C 1.472656 -2.921875 1.25 -2.804688 1.09375 -2.578125 C 0.9375 -2.359375 0.859375 -2.039062 0.859375 -1.625 C 0.859375 -1.207031 0.929688 -0.890625 1.078125 -0.671875 C 1.234375 -0.460938 1.460938 -0.359375 1.765625 -0.359375 Z M 1.765625 -0.359375 "/></g></g><g transform="translate(201.350486, 135.063134)"><g><path d="M 1.90625 0.0625 C 1.425781 0.0625 1.046875 -0.0820312 0.765625 -0.375 C 0.484375 -0.675781 0.34375 -1.085938 0.34375 -1.609375 C 0.34375 -2.140625 0.472656 -2.5625 0.734375 -2.875 C 0.992188 -3.1875 1.34375 -3.34375 1.78125 -3.34375 C 2.195312 -3.34375 2.519531 -3.207031 2.75 -2.9375 C 2.988281 -2.664062 3.109375 -2.304688 3.109375 -1.859375 L 3.109375 -1.546875 L 0.859375 -1.546875 C 0.867188 -1.160156 0.960938 -0.867188 1.140625 -0.671875 C 1.328125 -0.472656 1.585938 -0.375 1.921875 -0.375 C 2.273438 -0.375 2.625 -0.445312 2.96875 -0.59375 L 2.96875 -0.15625 C 2.800781 -0.0703125 2.640625 -0.015625 2.484375 0.015625 C 2.328125 0.046875 2.132812 0.0625 1.90625 0.0625 Z M 1.78125 -2.921875 C 1.507812 -2.921875 1.296875 -2.832031 1.140625 -2.65625 C 0.984375 -2.488281 0.894531 -2.253906 0.875 -1.953125 L 2.578125 -1.953125 C 2.578125 -2.265625 2.507812 -2.503906 2.375 -2.671875 C 2.238281 -2.835938 2.039062 -2.921875 1.78125 -2.921875 Z M 1.78125 -2.921875 "/></g></g></g></svg>